<svg viewBox="0 0 595.275590551 841.88976378" width="595.275590551pt" height="841.88976378pt" xmlns="http://www.w3.org/2000/svg" xmlns:xlink="http://www.w3.org/1999/xlink" xmlns:h5="http://www.w3.org/1999/xhtml"><path fill="#151515" fill-rule="nonzero" d="M 0 0v 841.88976378h 595.275590551v -841.88976378Z "/><g><g transform="translate(45.354330709 253.700787402)"><path fill="#222222" fill-rule="nonzero" d="M 0 0v 155.905511811h 240.94488189v -155.905511811Z "/><g transform="matrix(1 0 0 -1 24.842519685 34.517519685)"><use xlink:href="#g24BEA30AA378B541D3335E9DEAA1C7C7" x="0" y="0" fill="#ffffff" fill-rule="nonzero"/><use xlink:href="#g89877F52AA793B65AA475BA86843D3E0" x="5.595" y="0" fill="#ffffff" fill-rule="nonzero"/><use xlink:href="#gEBD8BA7CEC1D1F2455238D0AA5FE0E42" x="13.86" y="0" fill="#ffffff" fill-rule="nonzero"/><use xlink:href="#g3F61B909A7FA85981612CBE30070FB" x="23.145" y="0" fill="#ffffff" fill-rule="nonzero"/><use xlink:href="#g48339C396524EE5F203822BE79EEFC68" x="36.135" y="0" fill="#ffffff" fill-rule="nonzero"/><use xlink:href="#g89877F52AA793B65AA475BA86843D3E0" x="47.145" y="0" fill="#ffffff" fill-rule="nonzero"/><use xlink:href="#g608D612434571BBFAA7205A31C7960DE" x="55.515" y="0" fill="#ffffff" fill-rule="nonzero"/></g><g transform="matrix(1 0 0 -1 24.842519685 63.450811024)"><use xlink:href="#g8C602F113ED136B9EC97C2B861CC969C" x="0" y="0" fill="#dddddd" fill-rule="nonzero"/><use xlink:href="#gF14903D79C881A9B6AC2EE7D8BED6F03" x="5.168" y="0" fill="#dddddd" fill-rule="nonzero"/><use xlink:href="#g2B678EF10194558DA6DED0CDF87DA3E4" x="8.08" y="0" fill="#dddddd" fill-rule="nonzero"/><use xlink:href="#gE3B745958568E02614BCAB4547DCA2F1" x="12.112" y="0" fill="#dddddd" fill-rule="nonzero"/><use xlink:href="#g58427B726775E01C628C261B90DBAC4F" x="18.264" y="0" fill="#dddddd" fill-rule="nonzero"/><use xlink:href="#g7CADDE05683A2F282E92796EAE7002E6" x="24.584" y="0" fill="#dddddd" fill-rule="nonzero"/><use xlink:href="#gF14903D79C881A9B6AC2EE7D8BED6F03" x="28.24" y="0" fill="#dddddd" fill-rule="nonzero"/><use xlink:href="#gC65908FBCF60F62A897EEDA0AB2A464A" x="31.216" y="0" fill="#dddddd" fill-rule="nonzero"/><use xlink:href="#g86ABD9B98157573BF6882A43FA434742" x="35.312" y="0" fill="#dddddd" fill-rule="nonzero"/><use xlink:href="#g86ABD9B98157573BF6882A43FA434742" x="40.432" y="0" fill="#dddddd" fill-rule="nonzero"/><use xlink:href="#g3078E795B3E2291E912DCDEB76EE36F" x="43.552" y="0" fill="#dddddd" fill-rule="nonzero"/><use xlink:href="#g7CADDE05683A2F282E92796EAE7002E6" x="46.08" y="0" fill="#dddddd" fill-rule="nonzero"/><use xlink:href="#g64D5FC8B1E004A420EE0292D56516B04" x="49.736" y="0" fill="#dddddd" fill-rule="nonzero"/><use xlink:href="#g75898D78ABA7F2F9401043CAA2103564" x="55.856" y="0" fill="#dddddd" fill-rule="nonzero"/><use xlink:href="#g2BFBF805A6B9D0BF9A5DDB8FE340411" x="59.832" y="0" fill="#dddddd" fill-rule="nonzero"/><use xlink:href="#g86ABD9B98157573BF6882A43FA434742" x="62" y="0" fill="#dddddd" fill-rule="nonzero"/><use xlink:href="#g2BFBF805A6B9D0BF9A5DDB8FE340411" x="65.12" y="0" fill="#dddddd" fill-rule="nonzero"/><use xlink:href="#gD4D4B150EC498A90F8C7732D61AFCDA6" x="67.288" y="0" fill="#dddddd" fill-rule="nonzero"/><use xlink:href="#g9CB01113ED99ABC5A5F75E5016C1499E" x="71.232" y="0" fill="#dddddd" fill-rule="nonzero"/><use xlink:href="#g20EDBE1E989F56AA9FBFD4A2EF5BDC35" x="73.344" y="0" fill="#dddddd" fill-rule="nonzero"/><use xlink:href="#g2B678EF10194558DA6DED0CDF87DA3E4" x="78.92" y="0" fill="#dddddd" fill-rule="nonzero"/><use xlink:href="#g737E31D6A5E93E22E9ED4AD10D42FE71" x="82.952" y="0" fill="#dddddd" fill-rule="nonzero"/><use xlink:href="#g13CDF673763F5DB9C25A9A976EDAD0A7" x="89.288" y="0" fill="#dddddd" fill-rule="nonzero"/><use xlink:href="#g7CADDE05683A2F282E92796EAE7002E6" x="93.336" y="0" fill="#dddddd" fill-rule="nonzero"/><use xlink:href="#gF14903D79C881A9B6AC2EE7D8BED6F03" x="96.992" y="0" fill="#dddddd" fill-rule="nonzero"/><use xlink:href="#gC65908FBCF60F62A897EEDA0AB2A464A" x="99.968" y="0" fill="#dddddd" fill-rule="nonzero"/><use xlink:href="#g7CADDE05683A2F282E92796EAE7002E6" x="106.064" y="0" fill="#dddddd" fill-rule="nonzero"/><use xlink:href="#gF14903D79C881A9B6AC2EE7D8BED6F03" x="109.72" y="0" fill="#dddddd" fill-rule="nonzero"/><use xlink:href="#g3078E795B3E2291E912DCDEB76EE36F" x="112.696" y="0" fill="#dddddd" fill-rule="nonzero"/><use xlink:href="#g6EBC0479C6E747D8CB978FFD918AD9C7" x="115.224" y="0" fill="#dddddd" fill-rule="nonzero"/><use xlink:href="#g2B678EF10194558DA6DED0CDF87DA3E4" x="121.136" y="0" fill="#dddddd" fill-rule="nonzero"/><use xlink:href="#gF14903D79C881A9B6AC2EE7D8BED6F03" x="125.168" y="0" fill="#dddddd" fill-rule="nonzero"/><use xlink:href="#gC65908FBCF60F62A897EEDA0AB2A464A" x="128.144" y="0" fill="#dddddd" fill-rule="nonzero"/><use xlink:href="#gDA9D104EDC10412DB2A75684B1270D2D" x="132.24" y="0" fill="#dddddd" fill-rule="nonzero"/></g></g><path fill="#ffffff" fill-rule="nonzero" transform="translate(21.577165354 252.600787402)" d="M 0 0v 2.55h 24.877165354v -2.55Z "/><path fill="#000000" fill-rule="nonzero" transform="translate(22.677165354 253.700787402)" d="M 0 0v 0.35h 22.677165354v -0.35Z "/><path fill="#ffffff" fill-rule="nonzero" transform="translate(285.199212598 252.600787402)" d="M 0 0v 2.55h 24.877165354v -2.55Z "/><path fill="#000000" fill-rule="nonzero" transform="translate(286.299212598 253.700787402)" d="M 0 0v 0.35h 22.677165354v -0.35Z "/><path fill="#ffffff" fill-rule="nonzero" transform="translate(21.577165354 408.506299213)" d="M 0 0v 2.55h 24.877165354v -2.55Z "/><path fill="#000000" fill-rule="nonzero" transform="translate(22.677165354 409.606299213)" d="M 0 0v 0.35h 22.677165354v -0.35Z "/><path fill="#ffffff" fill-rule="nonzero" transform="translate(285.199212598 408.506299213)" d="M 0 0v 2.55h 24.877165354v -2.55Z "/><path fill="#000000" fill-rule="nonzero" transform="translate(286.299212598 409.606299213)" d="M 0 0v 0.35h 22.677165354v -0.35Z "/><path fill="#ffffff" fill-rule="nonzero" transform="translate(44.254330709 229.923622047)" d="M 0 0v 24.877165354h 2.55v -24.877165354Z "/><path fill="#000000" fill-rule="nonzero" transform="translate(45.354330709 231.023622047)" d="M 0 0v 22.677165354h 0.35v -22.677165354Z "/><path fill="#ffffff" fill-rule="nonzero" transform="translate(285.199212598 229.923622047)" d="M 0 0v 24.877165354h 2.55v -24.877165354Z "/><path fill="#000000" fill-rule="nonzero" transform="translate(286.299212598 231.023622047)" d="M 0 0v 22.677165354h 0.35v -22.677165354Z "/><path fill="#ffffff" fill-rule="nonzero" transform="translate(44.254330709 408.506299213)" d="M 0 0v 24.877165354h 2.55v -24.877165354Z "/><path fill="#000000" fill-rule="nonzero" transform="translate(45.354330709 409.606299213)" d="M 0 0v 22.677165354h 0.35v -22.677165354Z "/><path fill="#ffffff" fill-rule="nonzero" transform="translate(285.199212598 408.506299213)" d="M 0 0v 24.877165354h 2.55v -24.877165354Z "/><path fill="#000000" fill-rule="nonzero" transform="translate(286.299212598 409.606299213)" d="M 0 0v 22.677165354h 0.35v -22.677165354Z "/><g transform="translate(308.976377953 253.700787402)"><path fill="#222222" fill-rule="nonzero" d="M 0 0v 155.905511811h 240.94488189v -155.905511811Z "/><g transform="matrix(1 0 0 -1 24.842519685 34.517519685)"><use xlink:href="#g24BEA30AA378B541D3335E9DEAA1C7C7" x="0" y="0" fill="#ffffff" fill-rule="nonzero"/><use xlink:href="#g89877F52AA793B65AA475BA86843D3E0" x="5.595" y="0" fill="#ffffff" fill-rule="nonzero"/><use xlink:href="#gEBD8BA7CEC1D1F2455238D0AA5FE0E42" x="13.86" y="0" fill="#ffffff" fill-rule="nonzero"/><use xlink:href="#g3F61B909A7FA85981612CBE30070FB" x="23.145" y="0" fill="#ffffff" fill-rule="nonzero"/><use xlink:href="#g48339C396524EE5F203822BE79EEFC68" x="36.135" y="0" fill="#ffffff" fill-rule="nonzero"/><use xlink:href="#g89877F52AA793B65AA475BA86843D3E0" x="47.145" y="0" fill="#ffffff" fill-rule="nonzero"/><use xlink:href="#g608D612434571BBFAA7205A31C7960DE" x="55.515" y="0" fill="#ffffff" fill-rule="nonzero"/></g><g transform="matrix(1 0 0 -1 24.842519685 63.450811024)"><use xlink:href="#g8C602F113ED136B9EC97C2B861CC969C" x="0" y="0" fill="#dddddd" fill-rule="nonzero"/><use xlink:href="#gF14903D79C881A9B6AC2EE7D8BED6F03" x="5.168" y="0" fill="#dddddd" fill-rule="nonzero"/><use xlink:href="#g2B678EF10194558DA6DED0CDF87DA3E4" x="8.08" y="0" fill="#dddddd" fill-rule="nonzero"/><use xlink:href="#gE3B745958568E02614BCAB4547DCA2F1" x="12.112" y="0" fill="#dddddd" fill-rule="nonzero"/><use xlink:href="#g58427B726775E01C628C261B90DBAC4F" x="18.264" y="0" fill="#dddddd" fill-rule="nonzero"/><use xlink:href="#g7CADDE05683A2F282E92796EAE7002E6" x="24.584" y="0" fill="#dddddd" fill-rule="nonzero"/><use xlink:href="#gF14903D79C881A9B6AC2EE7D8BED6F03" x="28.24" y="0" fill="#dddddd" fill-rule="nonzero"/><use xlink:href="#gC65908FBCF60F62A897EEDA0AB2A464A" x="31.216" y="0" fill="#dddddd" fill-rule="nonzero"/><use xlink:href="#g86ABD9B98157573BF6882A43FA434742" x="35.312" y="0" fill="#dddddd" fill-rule="nonzero"/><use xlink:href="#g86ABD9B98157573BF6882A43FA434742" x="40.432" y="0" fill="#dddddd" fill-rule="nonzero"/><use xlink:href="#g3078E795B3E2291E912DCDEB76EE36F" x="43.552" y="0" fill="#dddddd" fill-rule="nonzero"/><use xlink:href="#g7CADDE05683A2F282E92796EAE7002E6" x="46.08" y="0" fill="#dddddd" fill-rule="nonzero"/><use xlink:href="#g64D5FC8B1E004A420EE0292D56516B04" x="49.736" y="0" fill="#dddddd" fill-rule="nonzero"/><use xlink:href="#g75898D78ABA7F2F9401043CAA2103564" x="55.856" y="0" fill="#dddddd" fill-rule="nonzero"/><use xlink:href="#g2BFBF805A6B9D0BF9A5DDB8FE340411" x="59.832" y="0" fill="#dddddd" fill-rule="nonzero"/><use xlink:href="#g86ABD9B98157573BF6882A43FA434742" x="62" y="0" fill="#dddddd" fill-rule="nonzero"/><use xlink:href="#g2BFBF805A6B9D0BF9A5DDB8FE340411" x="65.12" y="0" fill="#dddddd" fill-rule="nonzero"/><use xlink:href="#gD4D4B150EC498A90F8C7732D61AFCDA6" x="67.288" y="0" fill="#dddddd" fill-rule="nonzero"/><use xlink:href="#g9CB01113ED99ABC5A5F75E5016C1499E" x="71.232" y="0" fill="#dddddd" fill-rule="nonzero"/><use xlink:href="#g20EDBE1E989F56AA9FBFD4A2EF5BDC35" x="73.344" y="0" fill="#dddddd" fill-rule="nonzero"/><use xlink:href="#g2B678EF10194558DA6DED0CDF87DA3E4" x="78.92" y="0" fill="#dddddd" fill-rule="nonzero"/><use xlink:href="#g737E31D6A5E93E22E9ED4AD10D42FE71" x="82.952" y="0" fill="#dddddd" fill-rule="nonzero"/><use xlink:href="#g13CDF673763F5DB9C25A9A976EDAD0A7" x="89.288" y="0" fill="#dddddd" fill-rule="nonzero"/><use xlink:href="#g7CADDE05683A2F282E92796EAE7002E6" x="93.336" y="0" fill="#dddddd" fill-rule="nonzero"/><use xlink:href="#gF14903D79C881A9B6AC2EE7D8BED6F03" x="96.992" y="0" fill="#dddddd" fill-rule="nonzero"/><use xlink:href="#gC65908FBCF60F62A897EEDA0AB2A464A" x="99.968" y="0" fill="#dddddd" fill-rule="nonzero"/><use xlink:href="#g7CADDE05683A2F282E92796EAE7002E6" x="106.064" y="0" fill="#dddddd" fill-rule="nonzero"/><use xlink:href="#gF14903D79C881A9B6AC2EE7D8BED6F03" x="109.72" y="0" fill="#dddddd" fill-rule="nonzero"/><use xlink:href="#g3078E795B3E2291E912DCDEB76EE36F" x="112.696" y="0" fill="#dddddd" fill-rule="nonzero"/><use xlink:href="#g6EBC0479C6E747D8CB978FFD918AD9C7" x="115.224" y="0" fill="#dddddd" fill-rule="nonzero"/><use xlink:href="#g2B678EF10194558DA6DED0CDF87DA3E4" x="121.136" y="0" fill="#dddddd" fill-rule="nonzero"/><use xlink:href="#gF14903D79C881A9B6AC2EE7D8BED6F03" x="125.168" y="0" fill="#dddddd" fill-rule="nonzero"/><use xlink:href="#gC65908FBCF60F62A897EEDA0AB2A464A" x="128.144" y="0" fill="#dddddd" fill-rule="nonzero"/><use xlink:href="#gDA9D104EDC10412DB2A75684B1270D2D" x="132.24" y="0" fill="#dddddd" fill-rule="nonzero"/></g></g><path fill="#ffffff" fill-rule="nonzero" transform="translate(285.199212598 252.600787402)" d="M 0 0v 2.55h 24.877165354v -2.55Z "/><path fill="#000000" fill-rule="nonzero" transform="translate(286.299212598 253.700787402)" d="M 0 0v 0.35h 22.677165354v -0.35Z "/><path fill="#ffffff" fill-rule="nonzero" transform="translate(548.821259843 252.600787402)" d="M 0 0v 2.55h 24.877165354v -2.55Z "/><path fill="#000000" fill-rule="nonzero" transform="translate(549.921259843 253.700787402)" d="M 0 0v 0.35h 22.677165354v -0.35Z "/><path fill="#ffffff" fill-rule="nonzero" transform="translate(285.199212598 408.506299213)" d="M 0 0v 2.55h 24.877165354v -2.55Z "/><path fill="#000000" fill-rule="nonzero" transform="translate(286.299212598 409.606299213)" d="M 0 0v 0.35h 22.677165354v -0.35Z "/><path fill="#ffffff" fill-rule="nonzero" transform="translate(548.821259843 408.506299213)" d="M 0 0v 2.55h 24.877165354v -2.55Z "/><path fill="#000000" fill-rule="nonzero" transform="translate(549.921259843 409.606299213)" d="M 0 0v 0.35h 22.677165354v -0.35Z "/><path fill="#ffffff" fill-rule="nonzero" transform="translate(307.876377953 229.923622047)" d="M 0 0v 24.877165354h 2.55v -24.877165354Z "/><path fill="#000000" fill-rule="nonzero" transform="translate(308.976377953 231.023622047)" d="M 0 0v 22.677165354h 0.35v -22.677165354Z "/><path fill="#ffffff" fill-rule="nonzero" transform="translate(548.821259843 229.923622047)" d="M 0 0v 24.877165354h 2.55v -24.877165354Z "/><path fill="#000000" fill-rule="nonzero" transform="translate(549.921259843 231.023622047)" d="M 0 0v 22.677165354h 0.35v -22.677165354Z "/><path fill="#ffffff" fill-rule="nonzero" transform="translate(307.876377953 408.506299213)" d="M 0 0v 24.877165354h 2.55v -24.877165354Z "/><path fill="#000000" fill-rule="nonzero" transform="translate(308.976377953 409.606299213)" d="M 0 0v 22.677165354h 0.35v -22.677165354Z "/><path fill="#ffffff" fill-rule="nonzero" transform="translate(548.821259843 408.506299213)" d="M 0 0v 24.877165354h 2.55v -24.877165354Z "/><path fill="#000000" fill-rule="nonzero" transform="translate(549.921259843 409.606299213)" d="M 0 0v 22.677165354h 0.35v -22.677165354Z "/><g transform="translate(45.354330709 432.283464567)"><path fill="#222222" fill-rule="nonzero" d="M 0 0v 155.905511811h 240.94488189v -155.905511811Z "/><g transform="matrix(1 0 0 -1 24.842519685 34.517519685)"><use xlink:href="#g24BEA30AA378B541D3335E9DEAA1C7C7" x="0" y="0" fill="#ffffff" fill-rule="nonzero"/><use xlink:href="#g89877F52AA793B65AA475BA86843D3E0" x="5.595" y="0" fill="#ffffff" fill-rule="nonzero"/><use xlink:href="#gEBD8BA7CEC1D1F2455238D0AA5FE0E42" x="13.86" y="0" fill="#ffffff" fill-rule="nonzero"/><use xlink:href="#g3F61B909A7FA85981612CBE30070FB" x="23.145" y="0" fill="#ffffff" fill-rule="nonzero"/><use xlink:href="#g48339C396524EE5F203822BE79EEFC68" x="36.135" y="0" fill="#ffffff" fill-rule="nonzero"/><use xlink:href="#g89877F52AA793B65AA475BA86843D3E0" x="47.145" y="0" fill="#ffffff" fill-rule="nonzero"/><use xlink:href="#g608D612434571BBFAA7205A31C7960DE" x="55.515" y="0" fill="#ffffff" fill-rule="nonzero"/></g><g transform="matrix(1 0 0 -1 24.842519685 63.450811024)"><use xlink:href="#g8C602F113ED136B9EC97C2B861CC969C" x="0" y="0" fill="#dddddd" fill-rule="nonzero"/><use xlink:href="#gF14903D79C881A9B6AC2EE7D8BED6F03" x="5.168" y="0" fill="#dddddd" fill-rule="nonzero"/><use xlink:href="#g2B678EF10194558DA6DED0CDF87DA3E4" x="8.08" y="0" fill="#dddddd" fill-rule="nonzero"/><use xlink:href="#gE3B745958568E02614BCAB4547DCA2F1" x="12.112" y="0" fill="#dddddd" fill-rule="nonzero"/><use xlink:href="#g58427B726775E01C628C261B90DBAC4F" x="18.264" y="0" fill="#dddddd" fill-rule="nonzero"/><use xlink:href="#g7CADDE05683A2F282E92796EAE7002E6" x="24.584" y="0" fill="#dddddd" fill-rule="nonzero"/><use xlink:href="#gF14903D79C881A9B6AC2EE7D8BED6F03" x="28.24" y="0" fill="#dddddd" fill-rule="nonzero"/><use xlink:href="#gC65908FBCF60F62A897EEDA0AB2A464A" x="31.216" y="0" fill="#dddddd" fill-rule="nonzero"/><use xlink:href="#g86ABD9B98157573BF6882A43FA434742" x="35.312" y="0" fill="#dddddd" fill-rule="nonzero"/><use xlink:href="#g86ABD9B98157573BF6882A43FA434742" x="40.432" y="0" fill="#dddddd" fill-rule="nonzero"/><use xlink:href="#g3078E795B3E2291E912DCDEB76EE36F" x="43.552" y="0" fill="#dddddd" fill-rule="nonzero"/><use xlink:href="#g7CADDE05683A2F282E92796EAE7002E6" x="46.08" y="0" fill="#dddddd" fill-rule="nonzero"/><use xlink:href="#g64D5FC8B1E004A420EE0292D56516B04" x="49.736" y="0" fill="#dddddd" fill-rule="nonzero"/><use xlink:href="#g75898D78ABA7F2F9401043CAA2103564" x="55.856" y="0" fill="#dddddd" fill-rule="nonzero"/><use xlink:href="#g2BFBF805A6B9D0BF9A5DDB8FE340411" x="59.832" y="0" fill="#dddddd" fill-rule="nonzero"/><use xlink:href="#g86ABD9B98157573BF6882A43FA434742" x="62" y="0" fill="#dddddd" fill-rule="nonzero"/><use xlink:href="#g2BFBF805A6B9D0BF9A5DDB8FE340411" x="65.12" y="0" fill="#dddddd" fill-rule="nonzero"/><use xlink:href="#gD4D4B150EC498A90F8C7732D61AFCDA6" x="67.288" y="0" fill="#dddddd" fill-rule="nonzero"/><use xlink:href="#g9CB01113ED99ABC5A5F75E5016C1499E" x="71.232" y="0" fill="#dddddd" fill-rule="nonzero"/><use xlink:href="#g20EDBE1E989F56AA9FBFD4A2EF5BDC35" x="73.344" y="0" fill="#dddddd" fill-rule="nonzero"/><use xlink:href="#g2B678EF10194558DA6DED0CDF87DA3E4" x="78.92" y="0" fill="#dddddd" fill-rule="nonzero"/><use xlink:href="#g737E31D6A5E93E22E9ED4AD10D42FE71" x="82.952" y="0" fill="#dddddd" fill-rule="nonzero"/><use xlink:href="#g13CDF673763F5DB9C25A9A976EDAD0A7" x="89.288" y="0" fill="#dddddd" fill-rule="nonzero"/><use xlink:href="#g7CADDE05683A2F282E92796EAE7002E6" x="93.336" y="0" fill="#dddddd" fill-rule="nonzero"/><use xlink:href="#gF14903D79C881A9B6AC2EE7D8BED6F03" x="96.992" y="0" fill="#dddddd" fill-rule="nonzero"/><use xlink:href="#gC65908FBCF60F62A897EEDA0AB2A464A" x="99.968" y="0" fill="#dddddd" fill-rule="nonzero"/><use xlink:href="#g7CADDE05683A2F282E92796EAE7002E6" x="106.064" y="0" fill="#dddddd" fill-rule="nonzero"/><use xlink:href="#gF14903D79C881A9B6AC2EE7D8BED6F03" x="109.72" y="0" fill="#dddddd" fill-rule="nonzero"/><use xlink:href="#g3078E795B3E2291E912DCDEB76EE36F" x="112.696" y="0" fill="#dddddd" fill-rule="nonzero"/><use xlink:href="#g6EBC0479C6E747D8CB978FFD918AD9C7" x="115.224" y="0" fill="#dddddd" fill-rule="nonzero"/><use xlink:href="#g2B678EF10194558DA6DED0CDF87DA3E4" x="121.136" y="0" fill="#dddddd" fill-rule="nonzero"/><use xlink:href="#gF14903D79C881A9B6AC2EE7D8BED6F03" x="125.168" y="0" fill="#dddddd" fill-rule="nonzero"/><use xlink:href="#gC65908FBCF60F62A897EEDA0AB2A464A" x="128.144" y="0" fill="#dddddd" fill-rule="nonzero"/><use xlink:href="#gDA9D104EDC10412DB2A75684B1270D2D" x="132.24" y="0" fill="#dddddd" fill-rule="nonzero"/></g></g><path fill="#ffffff" fill-rule="nonzero" transform="translate(21.577165354 431.183464567)" d="M 0 0v 2.55h 24.877165354v -2.55Z "/><path fill="#000000" fill-rule="nonzero" transform="translate(22.677165354 432.283464567)" d="M 0 0v 0.35h 22.677165354v -0.35Z "/><path fill="#ffffff" fill-rule="nonzero" transform="translate(285.199212598 431.183464567)" d="M 0 0v 2.55h 24.877165354v -2.55Z "/><path fill="#000000" fill-rule="nonzero" transform="translate(286.299212598 432.283464567)" d="M 0 0v 0.35h 22.677165354v -0.35Z "/><path fill="#ffffff" fill-rule="nonzero" transform="translate(21.577165354 587.088976378)" d="M 0 0v 2.55h 24.877165354v -2.55Z "/><path fill="#000000" fill-rule="nonzero" transform="translate(22.677165354 588.188976378)" d="M 0 0v 0.35h 22.677165354v -0.35Z "/><path fill="#ffffff" fill-rule="nonzero" transform="translate(285.199212598 587.088976378)" d="M 0 0v 2.55h 24.877165354v -2.55Z "/><path fill="#000000" fill-rule="nonzero" transform="translate(286.299212598 588.188976378)" d="M 0 0v 0.35h 22.677165354v -0.35Z "/><path fill="#ffffff" fill-rule="nonzero" transform="translate(44.254330709 408.506299213)" d="M 0 0v 24.877165354h 2.55v -24.877165354Z "/><path fill="#000000" fill-rule="nonzero" transform="translate(45.354330709 409.606299213)" d="M 0 0v 22.677165354h 0.35v -22.677165354Z "/><path fill="#ffffff" fill-rule="nonzero" transform="translate(285.199212598 408.506299213)" d="M 0 0v 24.877165354h 2.55v -24.877165354Z "/><path fill="#000000" fill-rule="nonzero" transform="translate(286.299212598 409.606299213)" d="M 0 0v 22.677165354h 0.35v -22.677165354Z "/><path fill="#ffffff" fill-rule="nonzero" transform="translate(44.254330709 587.088976378)" d="M 0 0v 24.877165354h 2.55v -24.877165354Z "/><path fill="#000000" fill-rule="nonzero" transform="translate(45.354330709 588.188976378)" d="M 0 0v 22.677165354h 0.35v -22.677165354Z "/><path fill="#ffffff" fill-rule="nonzero" transform="translate(285.199212598 587.088976378)" d="M 0 0v 24.877165354h 2.55v -24.877165354Z "/><path fill="#000000" fill-rule="nonzero" transform="translate(286.299212598 588.188976378)" d="M 0 0v 22.677165354h 0.35v -22.677165354Z "/><g transform="translate(308.976377953 432.283464567)"><path fill="#222222" fill-rule="nonzero" d="M 0 0v 155.905511811h 240.94488189v -155.905511811Z "/><g transform="matrix(1 0 0 -1 24.842519685 34.517519685)"><use xlink:href="#g24BEA30AA378B541D3335E9DEAA1C7C7" x="0" y="0" fill="#ffffff" fill-rule="nonzero"/><use xlink:href="#g89877F52AA793B65AA475BA86843D3E0" x="5.595" y="0" fill="#ffffff" fill-rule="nonzero"/><use xlink:href="#gEBD8BA7CEC1D1F2455238D0AA5FE0E42" x="13.86" y="0" fill="#ffffff" fill-rule="nonzero"/><use xlink:href="#g3F61B909A7FA85981612CBE30070FB" x="23.145" y="0" fill="#ffffff" fill-rule="nonzero"/><use xlink:href="#g48339C396524EE5F203822BE79EEFC68" x="36.135" y="0" fill="#ffffff" fill-rule="nonzero"/><use xlink:href="#g89877F52AA793B65AA475BA86843D3E0" x="47.145" y="0" fill="#ffffff" fill-rule="nonzero"/><use xlink:href="#g608D612434571BBFAA7205A31C7960DE" x="55.515" y="0" fill="#ffffff" fill-rule="nonzero"/></g><g transform="matrix(1 0 0 -1 24.842519685 63.450811024)"><use xlink:href="#g8C602F113ED136B9EC97C2B861CC969C" x="0" y="0" fill="#dddddd" fill-rule="nonzero"/><use xlink:href="#gF14903D79C881A9B6AC2EE7D8BED6F03" x="5.168" y="0" fill="#dddddd" fill-rule="nonzero"/><use xlink:href="#g2B678EF10194558DA6DED0CDF87DA3E4" x="8.08" y="0" fill="#dddddd" fill-rule="nonzero"/><use xlink:href="#gE3B745958568E02614BCAB4547DCA2F1" x="12.112" y="0" fill="#dddddd" fill-rule="nonzero"/><use xlink:href="#g58427B726775E01C628C261B90DBAC4F" x="18.264" y="0" fill="#dddddd" fill-rule="nonzero"/><use xlink:href="#g7CADDE05683A2F282E92796EAE7002E6" x="24.584" y="0" fill="#dddddd" fill-rule="nonzero"/><use xlink:href="#gF14903D79C881A9B6AC2EE7D8BED6F03" x="28.24" y="0" fill="#dddddd" fill-rule="nonzero"/><use xlink:href="#gC65908FBCF60F62A897EEDA0AB2A464A" x="31.216" y="0" fill="#dddddd" fill-rule="nonzero"/><use xlink:href="#g86ABD9B98157573BF6882A43FA434742" x="35.312" y="0" fill="#dddddd" fill-rule="nonzero"/><use xlink:href="#g86ABD9B98157573BF6882A43FA434742" x="40.432" y="0" fill="#dddddd" fill-rule="nonzero"/><use xlink:href="#g3078E795B3E2291E912DCDEB76EE36F" x="43.552" y="0" fill="#dddddd" fill-rule="nonzero"/><use xlink:href="#g7CADDE05683A2F282E92796EAE7002E6" x="46.08" y="0" fill="#dddddd" fill-rule="nonzero"/><use xlink:href="#g64D5FC8B1E004A420EE0292D56516B04" x="49.736" y="0" fill="#dddddd" fill-rule="nonzero"/><use xlink:href="#g75898D78ABA7F2F9401043CAA2103564" x="55.856" y="0" fill="#dddddd" fill-rule="nonzero"/><use xlink:href="#g2BFBF805A6B9D0BF9A5DDB8FE340411" x="59.832" y="0" fill="#dddddd" fill-rule="nonzero"/><use xlink:href="#g86ABD9B98157573BF6882A43FA434742" x="62" y="0" fill="#dddddd" fill-rule="nonzero"/><use xlink:href="#g2BFBF805A6B9D0BF9A5DDB8FE340411" x="65.12" y="0" fill="#dddddd" fill-rule="nonzero"/><use xlink:href="#gD4D4B150EC498A90F8C7732D61AFCDA6" x="67.288" y="0" fill="#dddddd" fill-rule="nonzero"/><use xlink:href="#g9CB01113ED99ABC5A5F75E5016C1499E" x="71.232" y="0" fill="#dddddd" fill-rule="nonzero"/><use xlink:href="#g20EDBE1E989F56AA9FBFD4A2EF5BDC35" x="73.344" y="0" fill="#dddddd" fill-rule="nonzero"/><use xlink:href="#g2B678EF10194558DA6DED0CDF87DA3E4" x="78.92" y="0" fill="#dddddd" fill-rule="nonzero"/><use xlink:href="#g737E31D6A5E93E22E9ED4AD10D42FE71" x="82.952" y="0" fill="#dddddd" fill-rule="nonzero"/><use xlink:href="#g13CDF673763F5DB9C25A9A976EDAD0A7" x="89.288" y="0" fill="#dddddd" fill-rule="nonzero"/><use xlink:href="#g7CADDE05683A2F282E92796EAE7002E6" x="93.336" y="0" fill="#dddddd" fill-rule="nonzero"/><use xlink:href="#gF14903D79C881A9B6AC2EE7D8BED6F03" x="96.992" y="0" fill="#dddddd" fill-rule="nonzero"/><use xlink:href="#gC65908FBCF60F62A897EEDA0AB2A464A" x="99.968" y="0" fill="#dddddd" fill-rule="nonzero"/><use xlink:href="#g7CADDE05683A2F282E92796EAE7002E6" x="106.064" y="0" fill="#dddddd" fill-rule="nonzero"/><use xlink:href="#gF14903D79C881A9B6AC2EE7D8BED6F03" x="109.72" y="0" fill="#dddddd" fill-rule="nonzero"/><use xlink:href="#g3078E795B3E2291E912DCDEB76EE36F" x="112.696" y="0" fill="#dddddd" fill-rule="nonzero"/><use xlink:href="#g6EBC0479C6E747D8CB978FFD918AD9C7" x="115.224" y="0" fill="#dddddd" fill-rule="nonzero"/><use xlink:href="#g2B678EF10194558DA6DED0CDF87DA3E4" x="121.136" y="0" fill="#dddddd" fill-rule="nonzero"/><use xlink:href="#gF14903D79C881A9B6AC2EE7D8BED6F03" x="125.168" y="0" fill="#dddddd" fill-rule="nonzero"/><use xlink:href="#gC65908FBCF60F62A897EEDA0AB2A464A" x="128.144" y="0" fill="#dddddd" fill-rule="nonzero"/><use xlink:href="#gDA9D104EDC10412DB2A75684B1270D2D" x="132.24" y="0" fill="#dddddd" fill-rule="nonzero"/></g></g><path fill="#ffffff" fill-rule="nonzero" transform="translate(285.199212598 431.183464567)" d="M 0 0v 2.55h 24.877165354v -2.55Z "/><path fill="#000000" fill-rule="nonzero" transform="translate(286.299212598 432.283464567)" d="M 0 0v 0.35h 22.677165354v -0.35Z "/><path fill="#ffffff" fill-rule="nonzero" transform="translate(548.821259843 431.183464567)" d="M 0 0v 2.55h 24.877165354v -2.55Z "/><path fill="#000000" fill-rule="nonzero" transform="translate(549.921259843 432.283464567)" d="M 0 0v 0.35h 22.677165354v -0.35Z "/><path fill="#ffffff" fill-rule="nonzero" transform="translate(285.199212598 587.088976378)" d="M 0 0v 2.55h 24.877165354v -2.55Z "/><path fill="#000000" fill-rule="nonzero" transform="translate(286.299212598 588.188976378)" d="M 0 0v 0.35h 22.677165354v -0.35Z "/><path fill="#ffffff" fill-rule="nonzero" transform="translate(548.821259843 587.088976378)" d="M 0 0v 2.55h 24.877165354v -2.55Z "/><path fill="#000000" fill-rule="nonzero" transform="translate(549.921259843 588.188976378)" d="M 0 0v 0.35h 22.677165354v -0.35Z "/><path fill="#ffffff" fill-rule="nonzero" transform="translate(307.876377953 408.506299213)" d="M 0 0v 24.877165354h 2.55v -24.877165354Z "/><path fill="#000000" fill-rule="nonzero" transform="translate(308.976377953 409.606299213)" d="M 0 0v 22.677165354h 0.35v -22.677165354Z "/><path fill="#ffffff" fill-rule="nonzero" transform="translate(548.821259843 408.506299213)" d="M 0 0v 24.877165354h 2.55v -24.877165354Z "/><path fill="#000000" fill-rule="nonzero" transform="translate(549.921259843 409.606299213)" d="M 0 0v 22.677165354h 0.35v -22.677165354Z "/><path fill="#ffffff" fill-rule="nonzero" transform="translate(307.876377953 587.088976378)" d="M 0 0v 24.877165354h 2.55v -24.877165354Z "/><path fill="#000000" fill-rule="nonzero" transform="translate(308.976377953 588.188976378)" d="M 0 0v 22.677165354h 0.35v -22.677165354Z "/><path fill="#ffffff" fill-rule="nonzero" transform="translate(548.821259843 587.088976378)" d="M 0 0v 24.877165354h 2.55v -24.877165354Z "/><path fill="#000000" fill-rule="nonzero" transform="translate(549.921259843 588.188976378)" d="M 0 0v 22.677165354h 0.35v -22.677165354Z "/><g transform="matrix(1 0 0 -1 11.338582677 825.995244094)"><use xlink:href="#gF11DB265D627A5A24E772BB1BCBDCDDB" x="0" y="0" fill="#555555" fill-rule="nonzero"/><use xlink:href="#g6C40A4E449D5666E5950B7671B9F9558" x="2.568" y="0" fill="#555555" fill-rule="nonzero"/><use xlink:href="#g67D27502E6F3D76E0122BA4634BAD338" x="4.752" y="0" fill="#555555" fill-rule="nonzero"/><use xlink:href="#gB1B0CB617633622A2E58F4FB8058A272" x="7.776" y="0" fill="#555555" fill-rule="nonzero"/><use xlink:href="#g12BEE03F4CBE3225922350D2BC614675" x="12.39" y="0" fill="#555555" fill-rule="nonzero"/><use xlink:href="#g82E9A0ABFF06903617993D5908C89F9" x="17.13" y="0" fill="#555555" fill-rule="nonzero"/><use xlink:href="#g6C40A4E449D5666E5950B7671B9F9558" x="19.872" y="0" fill="#555555" fill-rule="nonzero"/><use xlink:href="#g9C9AE3455BC9FAE1461F2E11C1EC49A3" x="22.104" y="0" fill="#555555" fill-rule="nonzero"/><use xlink:href="#g9C9AE3455BC9FAE1461F2E11C1EC49A3" x="26.676" y="0" fill="#555555" fill-rule="nonzero"/><use xlink:href="#g7173894EF0707B7DA6A99A0F4E93410D" x="29.748" y="0" fill="#555555" fill-rule="nonzero"/><use xlink:href="#g67D27502E6F3D76E0122BA4634BAD338" x="33" y="0" fill="#555555" fill-rule="nonzero"/><use xlink:href="#gF11DB265D627A5A24E772BB1BCBDCDDB" x="36.066" y="0" fill="#555555" fill-rule="nonzero"/><use xlink:href="#g9C9AE3455BC9FAE1461F2E11C1EC49A3" x="38.634" y="0" fill="#555555" fill-rule="nonzero"/><use xlink:href="#g67D27502E6F3D76E0122BA4634BAD338" x="41.706" y="0" fill="#555555" fill-rule="nonzero"/><use xlink:href="#g1497732F51EBA8C37AA68C5120E49D8F" x="44.73" y="0" fill="#555555" fill-rule="nonzero"/><use xlink:href="#g530BF65FDF5C3DAB80702D3471F0F73D" x="47.916" y="0" fill="#555555" fill-rule="nonzero"/><use xlink:href="#gC26A184DEEE6C42AE3F4A80CAC8305DE" x="51.312" y="0" fill="#555555" fill-rule="nonzero"/><use xlink:href="#g873C0351E75367928697FCEF55E32D1E" x="54.042" y="0" fill="#555555" fill-rule="nonzero"/><use xlink:href="#gC54E17EE6C6A6268C12D627857CDDB66" x="56.382" y="0" fill="#555555" fill-rule="nonzero"/><use xlink:href="#g12B4D0C477C2291B11DD8C5D5A289401" x="59.61" y="0" fill="#555555" fill-rule="nonzero"/><use xlink:href="#g12B4D0C477C2291B11DD8C5D5A289401" x="62.334" y="0" fill="#555555" fill-rule="nonzero"/><use xlink:href="#g530BF65FDF5C3DAB80702D3471F0F73D" x="65.016" y="0" fill="#555555" fill-rule="nonzero"/><use xlink:href="#g576FC37FF3489F5E77AC15B686B63C62" x="68.412" y="0" fill="#555555" fill-rule="nonzero"/><use xlink:href="#gE0122233B34233F412C08A765FA64061" x="71.202" y="0" fill="#555555" fill-rule="nonzero"/><use xlink:href="#g576FC37FF3489F5E77AC15B686B63C62" x="73.14" y="0" fill="#555555" fill-rule="nonzero"/><use xlink:href="#gC26A184DEEE6C42AE3F4A80CAC8305DE" x="77.43" y="0" fill="#555555" fill-rule="nonzero"/><use xlink:href="#gC9487B108F28D416C138445F004E99A" x="80.16" y="0" fill="#555555" fill-rule="nonzero"/><use xlink:href="#g6C40A4E449D5666E5950B7671B9F9558" x="82.02" y="0" fill="#555555" fill-rule="nonzero"/><use xlink:href="#g67D27502E6F3D76E0122BA4634BAD338" x="84.204" y="0" fill="#555555" fill-rule="nonzero"/><use xlink:href="#g7173894EF0707B7DA6A99A0F4E93410D" x="87.228" y="0" fill="#555555" fill-rule="nonzero"/><use xlink:href="#g530BF65FDF5C3DAB80702D3471F0F73D" x="90.48" y="0" fill="#555555" fill-rule="nonzero"/></g></g><defs><symbol id="g24BEA30AA378B541D3335E9DEAA1C7C7" overflow="visible"><path d="M 0 0m 4.215 7.83c 0 1.245 0.255 1.32 1.155 1.365c 0.09 0.09 0.09 0.42 0 0.51c -0.735 -0.015 -1.35 -0.03 -2.22 -0.03c -0.975 0 -1.74 0.015 -2.49 0.03c -0.09 -0.09 -0.09 -0.42 0 -0.51c 1.2 -0.045 1.455 -0.12 1.455 -1.365v -6.615c 0 -2.7 -0.09 -3.135 -0.735 -3.135c -0.27 0 -0.54 0.15 -0.69 0.345c -0.195 0.255 -0.27 0.675 -0.87 0.675c -0.27 0 -0.87 -0.405 -0.87 -0.84c 0 -0.705 1.035 -1.065 1.47 -1.065c 0.885 0 1.65 0.345 2.265 0.87c 0.66 0.555 1.53 1.335 1.53 3.48Z "/></symbol><symbol id="g89877F52AA793B65AA475BA86843D3E0" overflow="visible"><path d="M 0 0m 0.555 3.105c 0 -1.965 1.56 -3.255 3.57 -3.255c 1.065 0 1.95 0.3 2.565 0.855c 0.765 0.675 1.02 1.695 1.02 2.535c 0 1.965 -1.335 3.42 -3.57 3.42c -1.245 0 -2.175 -0.435 -2.76 -1.11c -0.57 -0.66 -0.825 -1.56 -0.825 -2.445Z m 3.345 2.925c 1.02 0 1.71 -1.215 1.71 -3.27c 0 -1.8 -0.705 -2.28 -1.245 -2.28c -1.23 0 -1.71 1.845 -1.71 2.955c 0 1.38 0.24 2.595 1.245 2.595Z "/></symbol><symbol id="gEBD8BA7CEC1D1F2455238D0AA5FE0E42" overflow="visible"><path d="M 0 0m 7.92 1.92v 2.34c 0 1.65 -0.705 2.4 -1.995 2.4c -0.555 0 -1.62 -0.555 -2.475 -1.08v 3.165c 0 0.975 0.045 1.53 0.045 1.53c 0 0.135 -0.105 0.195 -0.24 0.195c -0.555 -0.18 -1.755 -0.345 -2.82 -0.39c -0.045 -0.18 -0.03 -0.345 0.045 -0.48c 0.945 -0.075 1.02 -0.09 1.02 -1.125v -6.57c 0 -1.245 -0.24 -1.38 -1.155 -1.425c -0.09 -0.09 -0.09 -0.42 0 -0.51c 0.63 0.015 1.305 0.03 2.13 0.03c 0.72 0 1.185 -0.015 1.83 -0.03c 0.09 0.09 0.09 0.42 0 0.51c -0.63 0.045 -0.855 0.18 -0.855 1.425v 3.075c 0.63 0.39 1.125 0.57 1.395 0.57c 0.6 0 1.125 -0.27 1.125 -1.125v -2.505c 0 -1.26 -0.24 -1.395 -0.855 -1.44c -0.09 -0.09 -0.09 -0.42 0 -0.51c 0.63 0.015 1.11 0.03 1.83 0.03c 0.825 0 1.485 -0.015 2.13 -0.03c 0.09 0.09 0.09 0.42 0 0.51c -0.915 0.045 -1.155 0.18 -1.155 1.44Z "/></symbol><symbol id="g3F61B909A7FA85981612CBE30070FB" overflow="visible"><path d="M 0 0m 3.42 1.83v 3.015c 0.6 0.405 1.2 0.705 1.47 0.705c 0.6 0 1.05 -0.27 1.05 -1.125v -2.505c 0 -1.26 -0.24 -1.395 -0.855 -1.44c -0.09 -0.09 -0.09 -0.42 0 -0.51c 0.63 0.015 1.11 0.03 1.83 0.03c 0.825 0 1.485 -0.015 2.13 -0.03c 0.09 0.09 0.09 0.42 0 0.51c -0.915 0.045 -1.155 0.18 -1.155 1.44v 2.34c 0 1.65 -0.705 2.4 -1.995 2.4c -0.6 0 -1.665 -0.66 -2.49 -1.23c -0.045 0.525 -0.105 0.975 -0.105 0.975c -0.015 0.18 -0.135 0.255 -0.345 0.255c -0.555 -0.15 -1.455 -0.36 -2.49 -0.495c -0.03 -0.09 0 -0.39 0.03 -0.48c 0.825 -0.075 0.975 -0.195 0.975 -1.05v -2.805c 0 -1.245 -0.165 -1.275 -1.08 -1.35c -0.09 -0.09 -0.09 -0.42 0 -0.51c 0.63 0.015 1.26 0.03 2.055 0.03c 0.69 0 1.11 -0.015 1.755 -0.03c 0.09 0.09 0.09 0.42 0 0.51c -0.63 0.06 -0.78 0.105 -0.78 1.35Z "/></symbol><symbol id="g48339C396524EE5F203822BE79EEFC68" overflow="visible"><path d="M 0 0m 2.775 0c 0.6 0 1.83 -0.03 2.43 -0.03c 1.32 0 2.805 0.33 3.87 1.26c 0.72 0.63 1.215 1.875 1.215 3.405c 0 2.775 -1.8 5.055 -5.49 5.055c -0.795 0 -1.425 -0.015 -2.025 -0.015c -0.6 0 -2.31 0.03 -2.31 0.03c -0.15 -0.09 -0.15 -0.42 0 -0.51c 0.825 -0.045 1.245 -0.105 1.245 -1.35v -6.015c 0 -1.245 -0.42 -1.305 -1.245 -1.35c -0.15 -0.09 -0.15 -0.42 0 -0.51c 0 0 1.71 0.03 2.31 0.03Z m 1.035 1.785v 6.15c 0 0.825 0.39 1.125 0.93 1.125c 2.955 0 3.285 -2.535 3.285 -4.8c 0 -2.73 -1.635 -3.66 -2.775 -3.66c -1.05 0 -1.44 0.18 -1.44 1.185Z "/></symbol><symbol id="g608D612434571BBFAA7205A31C7960DE" overflow="visible"><path d="M 0 0m 6.465 1.935c -0.615 -0.63 -1.425 -0.795 -1.995 -0.795c -1.17 0 -1.89 0.675 -1.89 2.145c 0 0.105 0.015 0.165 0.015 0.24h 3.6c 0.36 0 0.435 0.255 0.435 0.465c 0 1.275 -0.495 2.67 -2.7 2.67c -1.575 0 -3.375 -1.395 -3.375 -3.69c 0 -0.87 0.315 -1.785 0.96 -2.37c 0.57 -0.51 1.305 -0.75 2.37 -0.75c 1.035 0 2.055 0.525 2.805 1.62c 0 0.195 -0.075 0.465 -0.225 0.465Z m -3.81 2.19c 0.015 0.525 0.09 1.095 0.3 1.395c 0.24 0.36 0.645 0.51 0.81 0.51c 0.405 0 0.96 -0.39 0.96 -1.59c 0 -0.09 0 -0.285 -0.03 -0.315Z "/></symbol><symbol id="g8C602F113ED136B9EC97C2B861CC969C" overflow="visible"><path d="M 0 0m 2.856 -0.08c 0.776 0 1.488 0.368 2.032 1.08c -0.04 0.072 -0.096 0.12 -0.184 0.12c -0.568 -0.624 -1.112 -0.872 -1.856 -0.872c -1.08 0 -1.824 1.216 -1.824 2.384c 0 0.688 0.184 1.264 0.472 1.624c 0.4 0.488 0.864 0.712 1.28 0.712c 1.104 0 1.544 -0.656 1.752 -1.344c 0.096 -0.032 0.176 -0.008 0.264 0.04c -0.04 0.416 -0.096 0.8 -0.176 1.24c -0.408 0.04 -0.768 0.36 -1.752 0.36c -0.68 0 -1.248 -0.248 -1.72 -0.68c -0.528 -0.488 -0.848 -1.272 -0.848 -2.104c 0 -1.392 0.84 -2.56 2.56 -2.56Z "/></symbol><symbol id="gF14903D79C881A9B6AC2EE7D8BED6F03" overflow="visible"><path d="M 0 0m 1.408 2.864c -0.016 0.32 -0.024 0.528 -0.064 0.608c -0.016 0.04 -0.032 0.064 -0.096 0.064c -0.224 -0.088 -0.432 -0.16 -0.984 -0.232c -0.016 -0.048 0 -0.176 0.016 -0.224c 0.432 -0.04 0.52 -0.08 0.52 -0.544v -1.56c 0 -0.664 -0.096 -0.696 -0.592 -0.728c -0.048 -0.048 -0.048 -0.216 0 -0.264c 0.28 0.008 0.592 0.016 0.912 0.016c 0.32 0 0.688 -0.008 0.968 -0.016c 0.048 0.048 0.048 0.216 0 0.264c -0.56 0.04 -0.656 0.064 -0.656 0.728v 1.112c 0 0.208 0.096 0.392 0.192 0.536c 0.088 0.128 0.272 0.392 0.368 0.392c 0.072 0 0.144 -0.016 0.208 -0.104c 0.056 -0.08 0.152 -0.184 0.288 -0.184c 0.192 0 0.376 0.2 0.376 0.4c 0 0.152 -0.144 0.384 -0.48 0.384c -0.376 0 -0.704 -0.352 -0.888 -0.664c -0.048 -0.088 -0.088 -0.024 -0.088 0.016Z "/></symbol><symbol id="g2B678EF10194558DA6DED0CDF87DA3E4" overflow="visible"><path d="M 0 0m 0.328 1.64c 0 -0.816 0.544 -1.72 1.68 -1.72c 0.512 0 0.904 0.184 1.176 0.448c 0.36 0.352 0.52 0.856 0.52 1.344c 0 0.832 -0.456 1.8 -1.68 1.8c -0.528 0 -0.96 -0.216 -1.256 -0.56c -0.288 -0.344 -0.44 -0.808 -0.44 -1.312Z m 1.576 1.592c 0.688 0 1.112 -0.624 1.112 -1.776c 0 -1.008 -0.52 -1.256 -0.896 -1.256c -0.832 0 -1.104 1.008 -1.104 1.624c 0 0.696 0.168 1.408 0.888 1.408Z "/></symbol><symbol id="gE3B745958568E02614BCAB4547DCA2F1" overflow="visible"><path d="M 0 0m 1.248 2.944c -0.008 0.24 -0.024 0.448 -0.064 0.528c -0.016 0.04 -0.032 0.064 -0.096 0.064c -0.224 -0.088 -0.432 -0.16 -0.984 -0.232c -0.016 -0.048 0 -0.176 0.016 -0.224c 0.432 -0.04 0.52 -0.08 0.52 -0.544v -3.416c 0 -0.664 -0.088 -0.704 -0.576 -0.728c -0.048 -0.048 -0.048 -0.216 0 -0.264c 0.28 0.008 0.576 0.016 0.896 0.016c 0.32 0 0.704 -0.008 0.968 -0.016c 0.048 0.048 0.048 0.216 0 0.264c -0.568 0.032 -0.656 0.064 -0.656 0.728v 0.864c 0 0.104 0.032 0.096 0.112 0.064c 0.2 -0.08 0.44 -0.128 0.696 -0.128c 0.448 0 0.848 0.136 1.176 0.448c 0.376 0.368 0.592 0.864 0.592 1.512c 0 0.848 -0.6 1.632 -1.416 1.632c -0.368 0 -0.776 -0.24 -1.096 -0.6c -0.048 -0.048 -0.08 -0.048 -0.088 0.032Z m 0.152 -0.296c 0.208 0.256 0.576 0.496 0.808 0.496c 0.512 0 0.952 -0.576 0.952 -1.48c 0 -0.656 -0.232 -1.472 -1.128 -1.472c -0.144 0 -0.424 0.04 -0.568 0.168c -0.16 0.144 -0.192 0.192 -0.192 0.48v 1.456c 0 0.168 0.032 0.24 0.128 0.352Z "/></symbol><symbol id="g58427B726775E01C628C261B90DBAC4F" overflow="visible"><path d="M 0 0m 1.36 2.864c -0.008 0.24 -0.024 0.528 -0.064 0.608c -0.016 0.04 -0.032 0.064 -0.096 0.064c -0.224 -0.088 -0.432 -0.16 -0.984 -0.232c -0.016 -0.048 0 -0.176 0.016 -0.224c 0.432 -0.04 0.52 -0.08 0.52 -0.544v -1.56c 0 -0.656 -0.104 -0.696 -0.544 -0.728c -0.048 -0.048 -0.048 -0.216 0 -0.264c 0.24 0.008 0.544 0.016 0.864 0.016c 0.32 0 0.568 -0.008 0.808 -0.016c 0.048 0.048 0.048 0.216 0 0.264c -0.408 0.04 -0.496 0.072 -0.496 0.728v 1.312c 0 0.168 0.072 0.264 0.136 0.336c 0.32 0.312 0.616 0.472 0.864 0.472c 0.304 0 0.528 -0.192 0.528 -0.728v -1.392c 0 -0.656 -0.064 -0.696 -0.496 -0.728c -0.04 -0.048 -0.04 -0.216 0 -0.264c 0.2 0.008 0.496 0.016 0.816 0.016c 0.32 0 0.584 -0.008 0.784 -0.016c 0.04 0.048 0.04 0.216 0 0.264c -0.4 0.032 -0.472 0.072 -0.472 0.728v 1.272c 0 0.112 0 0.224 -0.008 0.32c 0.384 0.424 0.744 0.528 1.056 0.528c 0.304 0 0.48 -0.176 0.48 -0.712v -1.408c 0 -0.656 -0.08 -0.696 -0.496 -0.728c -0.04 -0.048 -0.04 -0.216 0 -0.264c 0.2 0.008 0.496 0.016 0.816 0.016c 0.32 0 0.6 -0.008 0.824 -0.016c 0.04 0.048 0.04 0.216 0 0.264c -0.44 0.032 -0.512 0.072 -0.512 0.728v 1.264c 0 0.712 -0.12 1.272 -0.824 1.272c -0.408 0 -0.904 -0.152 -1.32 -0.592c -0.024 -0.024 -0.072 -0.064 -0.088 0.008c -0.072 0.328 -0.384 0.584 -0.8 0.584c -0.464 0 -0.88 -0.272 -1.216 -0.648c -0.04 -0.04 -0.088 -0.096 -0.096 0Z "/></symbol><symbol id="g7CADDE05683A2F282E92796EAE7002E6" overflow="visible"><path d="M 0 0m 2.344 0.384c 0.048 -0.248 0.136 -0.464 0.536 -0.464c 0.304 0 0.592 0.136 0.76 0.296c -0.016 0.096 -0.048 0.168 -0.136 0.216c -0.056 -0.048 -0.192 -0.128 -0.296 -0.128c -0.232 0 -0.24 0.312 -0.24 0.68v 1.176c 0 1.136 -0.624 1.352 -1.208 1.352c -0.656 0 -1.32 -0.432 -1.32 -0.888c 0 -0.192 0.096 -0.288 0.28 -0.288c 0.232 0 0.376 0.168 0.376 0.272c 0 0.056 -0.008 0.112 -0.024 0.144c -0.008 0.024 -0.016 0.072 -0.016 0.16c 0 0.248 0.336 0.336 0.64 0.336c 0.272 0 0.648 -0.136 0.648 -1.04c 0 -0.056 -0.024 -0.088 -0.048 -0.096l -0.688 -0.168c -0.768 -0.192 -1.32 -0.616 -1.32 -1.16c 0 -0.656 0.448 -0.864 1.008 -0.864c 0.28 0 0.52 0.064 0.872 0.336l 0.16 0.128Z m 0 1.48v -1.056c 0 -0.104 -0.048 -0.16 -0.112 -0.208c -0.208 -0.168 -0.48 -0.352 -0.704 -0.352c -0.4 0 -0.576 0.32 -0.576 0.568c 0 0.36 0.168 0.728 0.76 0.88Z "/></symbol><symbol id="gC65908FBCF60F62A897EEDA0AB2A464A" overflow="visible"><path d="M 0 0m 0.688 0.976c 0 -0.664 -0.088 -0.696 -0.536 -0.728c -0.048 -0.048 -0.048 -0.216 0 -0.264c 0.264 0.008 0.536 0.016 0.856 0.016c 0.28 0 0.544 -0.008 0.728 -0.016c 0.048 0.048 0.048 0.216 0 0.264c -0.328 0.032 -0.416 0.064 -0.416 0.728v 0.696c 0.152 -0.008 0.264 -0.016 0.344 -0.04c 0.088 -0.064 0.16 -0.136 0.256 -0.264l 0.584 -0.784c 0.232 -0.312 0.328 -0.464 0.336 -0.56c 0 -0.024 0.008 -0.04 0.032 -0.04c 0.16 0.008 0.336 0.016 0.496 0.016c 0.248 0 0.496 -0.008 0.656 -0.016c 0.048 0.048 0.048 0.216 0 0.264c -0.272 0.032 -0.472 0.064 -0.688 0.336l -1.056 1.328c -0.032 0.04 -0.056 0.072 -0.056 0.112c 0 0.032 0 0.048 0.032 0.08l 0.704 0.728c 0.24 0.256 0.52 0.32 0.84 0.352c 0.048 0.048 0.048 0.216 0 0.264c -0.184 -0.008 -0.408 -0.016 -0.696 -0.016c -0.304 0 -0.6 0.008 -0.784 0.016c -0.048 -0.048 -0.048 -0.216 0 -0.264c 0.448 -0.032 0.256 -0.312 0.184 -0.408c -0.184 -0.232 -0.432 -0.504 -0.64 -0.656c -0.176 -0.128 -0.392 -0.224 -0.544 -0.248v 2.792c 0 0.52 0.032 0.84 0.032 0.84c 0 0.056 -0.032 0.08 -0.104 0.08c -0.2 -0.08 -0.8 -0.192 -1.12 -0.216c -0.016 -0.064 0 -0.192 0.048 -0.24c 0.024 0 0.048 0 0.072 0c 0.352 -0.024 0.44 -0.024 0.44 -0.656Z "/></symbol><symbol id="g86ABD9B98157573BF6882A43FA434742" overflow="visible"><path d="M 0 0m 0.384 1.104c 0.032 -0.392 0.056 -0.768 0.056 -1.104c 0.08 0.016 0.16 0.024 0.2 0.024c 0.056 0 0.104 0 0.16 -0.016c 0.216 -0.056 0.432 -0.088 0.728 -0.088c 0.448 0 1.272 0.216 1.272 1.008c 0 0.544 -0.392 0.864 -0.936 1.064c -0.48 0.184 -0.8 0.304 -0.8 0.744c 0 0.328 0.288 0.512 0.56 0.512c 0.176 0 0.64 -0.064 0.744 -0.744c 0.048 -0.048 0.208 -0.04 0.256 0.008c 0.024 0.288 0.04 0.584 0.048 0.848c -0.248 0.04 -0.632 0.152 -1.048 0.152c -0.592 0 -1.128 -0.384 -1.128 -0.896c 0 -0.584 0.264 -0.832 0.88 -1.088c 0.664 -0.272 0.816 -0.44 0.816 -0.784c 0 -0.392 -0.384 -0.56 -0.68 -0.56c -0.312 0 -0.488 0.104 -0.568 0.192c -0.176 0.184 -0.264 0.536 -0.312 0.736c -0.048 0.048 -0.2 0.04 -0.248 -0.008Z "/></symbol><symbol id="g3078E795B3E2291E912DCDEB76EE36F" overflow="visible"><path d="M 0 0m 0.344 3.432c -0.112 0 -0.144 -0.096 -0.144 -0.16v -0.104c 0 -0.04 0.008 -0.048 0.04 -0.048h 0.472v -2.408c 0 -0.568 0.248 -0.792 0.616 -0.792c 0.368 0 0.768 0.176 1.08 0.528c -0.016 0.08 -0.064 0.128 -0.144 0.136c -0.208 -0.16 -0.448 -0.224 -0.656 -0.224c -0.216 0 -0.264 0.24 -0.264 0.736v 2.024h 0.832c 0.08 0 0.192 0.032 0.192 0.104v 0.16c 0 0.032 -0.024 0.048 -0.064 0.048h -0.96v 0.312c 0 0.52 0.032 0.84 0.032 0.84c 0 0.048 -0.024 0.072 -0.064 0.072c -0.032 0 -0.104 -0.032 -0.176 -0.072c -0.088 -0.048 -0.168 -0.088 -0.272 -0.112c -0.096 -0.032 -0.176 -0.056 -0.176 -0.112c 0 -0.096 0.024 -0.04 0.024 -0.928Z "/></symbol><symbol id="g64D5FC8B1E004A420EE0292D56516B04" overflow="visible"><path d="M 0 0m 1.632 -1.28c 0.128 0.224 0.232 0.448 0.328 0.688c 0.64 1.544 1 2.368 1.416 3.264c 0.16 0.336 0.272 0.464 0.648 0.512c 0.048 0.048 0.048 0.216 0 0.264c -0.16 -0.008 -0.344 -0.016 -0.568 -0.016c -0.24 0 -0.488 0.008 -0.728 0.016c -0.048 -0.048 -0.048 -0.216 0 -0.264c 0.256 -0.024 0.512 -0.072 0.384 -0.36l -0.792 -1.832c -0.056 -0.128 -0.128 -0.152 -0.192 0.008l -0.712 1.664c -0.144 0.336 -0.184 0.488 0.264 0.52c 0.048 0.048 0.048 0.216 0 0.264c -0.296 -0.008 -0.616 -0.016 -0.904 -0.016c -0.272 0 -0.488 0.008 -0.648 0.016c -0.048 -0.048 -0.048 -0.216 0 -0.264c 0.32 -0.04 0.424 -0.112 0.632 -0.6l 0.904 -2.104c 0.072 -0.16 0.192 -0.528 0.112 -0.752c -0.096 -0.264 -0.192 -0.488 -0.312 -0.736c -0.088 -0.16 -0.2 -0.232 -0.4 -0.232c -0.112 0 -0.144 0.024 -0.232 0.024c -0.232 0 -0.352 -0.24 -0.352 -0.344c 0 -0.168 0.16 -0.296 0.376 -0.296c 0.168 0 0.488 0.064 0.776 0.576Z "/></symbol><symbol id="g75898D78ABA7F2F9401043CAA2103564" overflow="visible"><path d="M 0 0m 2.6 3.184c 0.432 -0.032 0.48 -0.128 0.312 -0.536l -0.648 -1.568c -0.128 -0.312 -0.168 -0.312 -0.296 0.024l -0.576 1.544c -0.144 0.384 -0.176 0.48 0.248 0.536c 0.048 0.048 0.048 0.216 0 0.264c -0.264 -0.008 -0.544 -0.016 -0.808 -0.016c -0.264 0 -0.504 0.008 -0.744 0.016c -0.048 -0.048 -0.048 -0.216 0 -0.264c 0.424 -0.048 0.48 -0.176 0.64 -0.584l 1.024 -2.528c 0.048 -0.12 0.096 -0.168 0.2 -0.168c 0.08 0 0.136 0.048 0.192 0.184l 1.064 2.504c 0.152 0.352 0.24 0.552 0.688 0.592c 0.048 0.048 0.048 0.216 0 0.264c -0.16 -0.008 -0.352 -0.016 -0.56 -0.016c -0.264 0 -0.536 0.008 -0.736 0.016c -0.048 -0.048 -0.048 -0.216 0 -0.264Z "/></symbol><symbol id="g2BFBF805A6B9D0BF9A5DDB8FE340411" overflow="visible"><path d="M 0 0m 1.448 0.976v 1.592c 0 0.4 0.032 0.912 0.032 0.912c 0 0.032 -0.04 0.056 -0.104 0.056c -0.224 -0.088 -0.544 -0.16 -1.096 -0.232c -0.016 -0.048 0 -0.176 0.016 -0.224c 0.44 -0.04 0.52 -0.088 0.52 -0.544v -1.56c 0 -0.664 -0.088 -0.688 -0.576 -0.728c -0.048 -0.048 -0.048 -0.216 0 -0.264c 0.264 0.008 0.576 0.016 0.896 0.016c 0.32 0 0.624 -0.008 0.888 -0.016c 0.048 0.048 0.048 0.216 0 0.264c -0.488 0.032 -0.576 0.064 -0.576 0.728Z m -0.728 3.816c 0 -0.208 0.192 -0.416 0.384 -0.416c 0.224 0 0.416 0.216 0.416 0.384c 0 0.192 -0.168 0.416 -0.384 0.416c -0.192 0 -0.416 -0.192 -0.416 -0.384Z "/></symbol><symbol id="gD4D4B150EC498A90F8C7732D61AFCDA6" overflow="visible"><path d="M 0 0m 1.336 3.152c -0.048 -0.048 -0.08 -0.032 -0.08 0.04v 1.472c 0 0.52 0.032 0.84 0.032 0.84c 0 0.056 -0.032 0.08 -0.104 0.08c -0.2 -0.08 -0.8 -0.192 -1.12 -0.216c -0.016 -0.064 0 -0.192 0.048 -0.24c 0.024 0 0.048 0 0.072 0c 0.352 -0.024 0.44 -0.024 0.44 -0.656v -3.904c 0 -0.312 -0.008 -0.456 -0.032 -0.568c 0.04 -0.064 0.08 -0.096 0.176 -0.096c 0.048 0.048 0.128 0.12 0.192 0.192c 0.08 0.096 0.128 0.096 0.216 0.024c 0.184 -0.152 0.424 -0.2 0.704 -0.2c 0.816 0 1.768 0.744 1.768 2.016c 0 0.976 -0.72 1.576 -1.416 1.576c -0.344 0 -0.648 -0.136 -0.896 -0.36Z m 0.056 -0.248c 0.208 0.184 0.448 0.256 0.68 0.256c 0.488 0 0.888 -0.592 0.888 -1.368c 0 -0.912 -0.368 -1.6 -1.128 -1.6c -0.248 0 -0.416 0.176 -0.576 0.376v 2c 0 0.168 0.032 0.248 0.136 0.336Z "/></symbol><symbol id="g9CB01113ED99ABC5A5F75E5016C1499E" overflow="visible"><path d="M 0 0m 0.76 0.976c 0 -0.664 -0.088 -0.704 -0.576 -0.728c -0.048 -0.048 -0.048 -0.216 0 -0.264c 0.28 0.008 0.576 0.016 0.896 0.016c 0.32 0 0.624 -0.008 0.888 -0.016c 0.048 0.048 0.048 0.216 0 0.264c -0.488 0.024 -0.576 0.064 -0.576 0.728v 3.688c 0 0.52 0.032 0.84 0.032 0.84c 0 0.056 -0.032 0.08 -0.104 0.08c -0.2 -0.08 -0.8 -0.192 -1.12 -0.216c -0.016 -0.064 0 -0.192 0.048 -0.24c 0.464 -0.032 0.512 -0.056 0.512 -0.656Z "/></symbol><symbol id="g20EDBE1E989F56AA9FBFD4A2EF5BDC35" overflow="visible"><path d="M 0 0m 3.088 0.744c -0.296 -0.304 -0.528 -0.432 -0.992 -0.432c -0.288 0 -0.624 0.168 -0.872 0.576c -0.16 0.264 -0.256 0.632 -0.256 1.096l 2.128 -0.016c 0.096 0 0.152 0.048 0.152 0.136c 0 0.672 -0.24 1.392 -1.352 1.392c -0.696 0 -1.6 -0.664 -1.6 -1.88c 0 -0.448 0.112 -0.88 0.376 -1.184c 0.272 -0.32 0.648 -0.512 1.224 -0.512c 0.608 0 1.04 0.28 1.36 0.696c -0.024 0.08 -0.072 0.12 -0.168 0.128Z m -2.096 1.512c 0.152 0.904 0.712 0.976 0.904 0.976c 0.304 0 0.664 -0.168 0.664 -0.84c 0 -0.072 -0.032 -0.112 -0.12 -0.112Z "/></symbol><symbol id="g737E31D6A5E93E22E9ED4AD10D42FE71" overflow="visible"><path d="M 0 0m 1.472 2.864c -0.048 -0.056 -0.096 -0.072 -0.096 0c -0.008 0.216 -0.024 0.528 -0.064 0.608c -0.016 0.04 -0.032 0.064 -0.096 0.064c -0.224 -0.088 -0.432 -0.16 -0.984 -0.232c -0.016 -0.048 0 -0.176 0.016 -0.224c 0.432 -0.04 0.52 -0.08 0.52 -0.544v -1.56c 0 -0.656 -0.08 -0.688 -0.56 -0.728c -0.048 -0.048 -0.048 -0.216 0 -0.264c 0.24 0.008 0.56 0.016 0.88 0.016c 0.32 0 0.56 -0.008 0.8 -0.016c 0.048 0.048 0.048 0.216 0 0.264c -0.408 0.04 -0.488 0.072 -0.488 0.728v 1.312c 0 0.168 0.072 0.264 0.136 0.336c 0.304 0.296 0.664 0.472 0.976 0.472c 0.16 0 0.328 -0.104 0.424 -0.288c 0.08 -0.16 0.096 -0.376 0.096 -0.616v -1.216c 0 -0.656 -0.08 -0.688 -0.496 -0.728c -0.04 -0.048 -0.04 -0.216 0 -0.264c 0.24 0.008 0.496 0.016 0.816 0.016c 0.32 0 0.608 -0.008 0.848 -0.016c 0.04 0.048 0.04 0.216 0 0.264c -0.448 0.04 -0.536 0.072 -0.536 0.728v 1.192c 0 0.44 -0.032 0.824 -0.216 1.072c -0.136 0.176 -0.384 0.272 -0.664 0.272c -0.392 0 -0.84 -0.104 -1.312 -0.648Z "/></symbol><symbol id="g13CDF673763F5DB9C25A9A976EDAD0A7" overflow="visible"><path d="M 0 0m 2.672 0.4c 0.04 0.032 0.112 0.048 0.12 -0.008c 0.024 -0.192 0.088 -0.472 0.088 -0.472c 0.064 -0.024 0.104 -0.016 0.152 0c 0.176 0.144 0.456 0.264 0.944 0.32c 0.048 0.048 0.048 0.168 0 0.216c -0.512 0.04 -0.584 0.192 -0.584 0.584v 3.624c 0 0.52 0.032 0.84 0.032 0.84c 0 0.056 -0.032 0.08 -0.104 0.08c -0.2 -0.08 -0.8 -0.192 -1.12 -0.216c -0.016 -0.064 0 -0.192 0.048 -0.24c 0.024 0 0.048 0 0.072 0c 0.352 -0.024 0.44 -0.024 0.44 -0.656v -1.024c 0 -0.056 -0.016 -0.072 -0.072 -0.072c -0.032 0 -0.36 0.136 -0.624 0.136c -0.528 0 -0.88 -0.176 -1.2 -0.48c -0.344 -0.344 -0.552 -0.816 -0.552 -1.408c 0 -0.984 0.496 -1.704 1.36 -1.704c 0.312 0 0.608 0.16 1 0.48Z m 0.088 0.592c 0 -0.152 -0.016 -0.216 -0.128 -0.312c -0.296 -0.256 -0.552 -0.384 -0.752 -0.384c -0.432 0 -0.88 0.472 -0.88 1.472c 0 0.576 0.112 0.896 0.232 1.064c 0.248 0.376 0.584 0.4 0.744 0.4c 0.288 0 0.488 -0.104 0.648 -0.288c 0.112 -0.128 0.136 -0.184 0.136 -0.432Z "/></symbol><symbol id="g6EBC0479C6E747D8CB978FFD918AD9C7" overflow="visible"><path d="M 0 0m 1.624 3.184c 0.048 0.048 0.048 0.216 0 0.264c -0.24 -0.008 -0.52 -0.016 -0.808 -0.016c -0.304 0 -0.52 0.008 -0.728 0.016c -0.048 -0.048 -0.048 -0.216 0 -0.264c 0.376 -0.04 0.464 -0.12 0.632 -0.536l 1.048 -2.584c 0.048 -0.112 0.112 -0.16 0.192 -0.16c 0.072 0 0.136 0.048 0.192 0.176l 0.808 1.968l 0.824 -1.984c 0.048 -0.112 0.112 -0.16 0.192 -0.16c 0.072 0 0.136 0.048 0.184 0.168l 1.048 2.536c 0.128 0.328 0.264 0.552 0.672 0.576c 0.048 0.048 0.048 0.216 0 0.264c -0.16 -0.008 -0.336 -0.016 -0.576 -0.016c -0.24 0 -0.576 0.008 -0.816 0.016c -0.048 -0.048 -0.048 -0.216 0 -0.264c 0.6 -0.032 0.52 -0.264 0.408 -0.544l -0.672 -1.664c -0.08 -0.2 -0.112 -0.2 -0.176 -0.032l -0.688 1.752c -0.152 0.376 -0.136 0.456 0.288 0.488c 0.048 0.048 0.048 0.216 0 0.264c -0.24 -0.008 -0.56 -0.016 -0.8 -0.016c -0.2 0 -0.464 0.008 -0.704 0.016c -0.048 -0.048 -0.048 -0.216 0 -0.264c 0.376 -0.032 0.472 -0.264 0.616 -0.624l 0.048 -0.128l -0.56 -1.416c -0.104 -0.264 -0.12 -0.272 -0.224 -0.016l -0.64 1.648c -0.152 0.384 -0.144 0.512 0.24 0.536Z "/></symbol><symbol id="gDA9D104EDC10412DB2A75684B1270D2D" overflow="visible"><path d="M 0 0m 0.456 0.344c 0 -0.232 0.192 -0.424 0.424 -0.424c 0.232 0 0.424 0.192 0.424 0.424c 0 0.232 -0.192 0.424 -0.424 0.424c -0.232 0 -0.424 -0.192 -0.424 -0.424Z "/></symbol><symbol id="gF11DB265D627A5A24E772BB1BCBDCDDB" overflow="visible"><path d="M 0 0m 2.388 0.546c -0.024 0.054 -0.072 0.078 -0.126 0.084c -0.204 -0.264 -0.462 -0.396 -0.72 -0.396c -0.438 0 -0.804 0.444 -0.804 1.146c 0 0.66 0.288 1.056 0.684 1.056c 0.354 0 0.402 -0.21 0.426 -0.42c 0.018 -0.162 0.102 -0.216 0.228 -0.216c 0.126 0 0.294 0.078 0.294 0.264c 0 0.33 -0.342 0.57 -0.918 0.57c -0.594 0 -1.23 -0.534 -1.23 -1.386c 0 -0.774 0.432 -1.308 1.188 -1.308c 0.36 0 0.678 0.114 0.978 0.606Z "/></symbol><symbol id="g6C40A4E449D5666E5950B7671B9F9558" overflow="visible"><path d="M 0 0m 1.056 2.148c -0.012 0.24 -0.018 0.396 -0.048 0.456c -0.012 0.03 -0.024 0.048 -0.072 0.048c -0.168 -0.066 -0.324 -0.12 -0.738 -0.174c -0.012 -0.036 0 -0.132 0.012 -0.168c 0.324 -0.03 0.39 -0.06 0.39 -0.408v -1.17c 0 -0.498 -0.072 -0.522 -0.444 -0.546c -0.036 -0.036 -0.036 -0.162 0 -0.198c 0.21 0.006 0.444 0.012 0.684 0.012c 0.24 0 0.516 -0.006 0.726 -0.012c 0.036 0.036 0.036 0.162 0 0.198c -0.42 0.03 -0.492 0.048 -0.492 0.546v 0.834c 0 0.156 0.072 0.294 0.144 0.402c 0.066 0.096 0.204 0.294 0.276 0.294c 0.054 0 0.108 -0.012 0.156 -0.078c 0.042 -0.06 0.114 -0.138 0.216 -0.138c 0.144 0 0.282 0.15 0.282 0.3c 0 0.114 -0.108 0.288 -0.36 0.288c -0.282 0 -0.528 -0.264 -0.666 -0.498c -0.036 -0.066 -0.066 -0.018 -0.066 0.012Z "/></symbol><symbol id="g67D27502E6F3D76E0122BA4634BAD338" overflow="visible"><path d="M 0 0m 0.246 1.23c 0 -0.612 0.408 -1.29 1.26 -1.29c 0.384 0 0.678 0.138 0.882 0.336c 0.27 0.264 0.39 0.642 0.39 1.008c 0 0.624 -0.342 1.35 -1.26 1.35c -0.396 0 -0.72 -0.162 -0.942 -0.42c -0.216 -0.258 -0.33 -0.606 -0.33 -0.984Z m 1.182 1.194c 0.516 0 0.834 -0.468 0.834 -1.332c 0 -0.756 -0.39 -0.942 -0.672 -0.942c -0.624 0 -0.828 0.756 -0.828 1.218c 0 0.522 0.126 1.056 0.666 1.056Z "/></symbol><symbol id="gB1B0CB617633622A2E58F4FB8058A272" overflow="visible"><path d="M 0 0m 0.936 2.208c -0.006 0.18 -0.018 0.336 -0.048 0.396c -0.012 0.03 -0.024 0.048 -0.072 0.048c -0.168 -0.066 -0.324 -0.12 -0.738 -0.174c -0.012 -0.036 0 -0.132 0.012 -0.168c 0.324 -0.03 0.39 -0.06 0.39 -0.408v -2.562c 0 -0.498 -0.066 -0.528 -0.432 -0.546c -0.036 -0.036 -0.036 -0.162 0 -0.198c 0.21 0.006 0.432 0.012 0.672 0.012c 0.24 0 0.528 -0.006 0.726 -0.012c 0.036 0.036 0.036 0.162 0 0.198c -0.426 0.024 -0.492 0.048 -0.492 0.546v 0.648c 0 0.078 0.024 0.072 0.084 0.048c 0.15 -0.06 0.33 -0.096 0.522 -0.096c 0.336 0 0.636 0.102 0.882 0.336c 0.282 0.276 0.444 0.648 0.444 1.134c 0 0.636 -0.45 1.224 -1.062 1.224c -0.276 0 -0.582 -0.18 -0.822 -0.45c -0.036 -0.036 -0.06 -0.036 -0.066 0.024Z m 0.114 -0.222c 0.156 0.192 0.432 0.372 0.606 0.372c 0.384 0 0.714 -0.432 0.714 -1.11c 0 -0.492 -0.174 -1.104 -0.846 -1.104c -0.108 0 -0.318 0.03 -0.426 0.126c -0.12 0.108 -0.144 0.144 -0.144 0.36v 1.092c 0 0.126 0.024 0.18 0.096 0.264Z "/></symbol><symbol id="g12BEE03F4CBE3225922350D2BC614675" overflow="visible"><path d="M 0 0m 1.02 2.148c -0.006 0.18 -0.018 0.396 -0.048 0.456c -0.012 0.03 -0.024 0.048 -0.072 0.048c -0.168 -0.066 -0.324 -0.12 -0.738 -0.174c -0.012 -0.036 0 -0.132 0.012 -0.168c 0.324 -0.03 0.39 -0.06 0.39 -0.408v -1.17c 0 -0.492 -0.078 -0.522 -0.408 -0.546c -0.036 -0.036 -0.036 -0.162 0 -0.198c 0.18 0.006 0.408 0.012 0.648 0.012c 0.24 0 0.426 -0.006 0.606 -0.012c 0.036 0.036 0.036 0.162 0 0.198c -0.306 0.03 -0.372 0.054 -0.372 0.546v 0.984c 0 0.126 0.054 0.198 0.102 0.252c 0.24 0.234 0.462 0.354 0.648 0.354c 0.228 0 0.396 -0.144 0.396 -0.546v -1.044c 0 -0.492 -0.048 -0.522 -0.372 -0.546c -0.03 -0.036 -0.03 -0.162 0 -0.198c 0.15 0.006 0.372 0.012 0.612 0.012c 0.24 0 0.438 -0.006 0.588 -0.012c 0.03 0.036 0.03 0.162 0 0.198c -0.3 0.024 -0.354 0.054 -0.354 0.546v 0.954c 0 0.084 0 0.168 -0.006 0.24c 0.288 0.318 0.558 0.396 0.792 0.396c 0.228 0 0.36 -0.132 0.36 -0.534v -1.056c 0 -0.492 -0.06 -0.522 -0.372 -0.546c -0.03 -0.036 -0.03 -0.162 0 -0.198c 0.15 0.006 0.372 0.012 0.612 0.012c 0.24 0 0.45 -0.006 0.618 -0.012c 0.03 0.036 0.03 0.162 0 0.198c -0.33 0.024 -0.384 0.054 -0.384 0.546v 0.948c 0 0.534 -0.09 0.954 -0.618 0.954c -0.306 0 -0.678 -0.114 -0.99 -0.444c -0.018 -0.018 -0.054 -0.048 -0.066 0.006c -0.054 0.246 -0.288 0.438 -0.6 0.438c -0.348 0 -0.66 -0.204 -0.912 -0.486c -0.03 -0.03 -0.066 -0.072 -0.072 0Z "/></symbol><symbol id="g82E9A0ABFF06903617993D5908C89F9" overflow="visible"><path d="M 0 0m 1.758 0.288c 0.036 -0.186 0.102 -0.348 0.402 -0.348c 0.228 0 0.444 0.102 0.57 0.222c -0.012 0.072 -0.036 0.126 -0.102 0.162c -0.042 -0.036 -0.144 -0.096 -0.222 -0.096c -0.174 0 -0.18 0.234 -0.18 0.51v 0.882c 0 0.852 -0.468 1.014 -0.906 1.014c -0.492 0 -0.99 -0.324 -0.99 -0.666c 0 -0.144 0.072 -0.216 0.21 -0.216c 0.174 0 0.282 0.126 0.282 0.204c 0 0.042 -0.006 0.084 -0.018 0.108c -0.006 0.018 -0.012 0.054 -0.012 0.12c 0 0.186 0.252 0.252 0.48 0.252c 0.204 0 0.486 -0.102 0.486 -0.78c 0 -0.042 -0.018 -0.066 -0.036 -0.072l -0.516 -0.126c -0.576 -0.144 -0.99 -0.462 -0.99 -0.87c 0 -0.492 0.336 -0.648 0.756 -0.648c 0.21 0 0.39 0.048 0.654 0.252l 0.12 0.096Z m 0 1.11v -0.792c 0 -0.078 -0.036 -0.12 -0.084 -0.156c -0.156 -0.126 -0.36 -0.264 -0.528 -0.264c -0.3 0 -0.432 0.24 -0.432 0.426c 0 0.27 0.126 0.546 0.57 0.66Z "/></symbol><symbol id="g9C9AE3455BC9FAE1461F2E11C1EC49A3" overflow="visible"><path d="M 0 0m 0.516 0.732c 0 -0.498 -0.066 -0.522 -0.402 -0.546c -0.036 -0.036 -0.036 -0.162 0 -0.198c 0.198 0.006 0.402 0.012 0.642 0.012c 0.21 0 0.408 -0.006 0.546 -0.012c 0.036 0.036 0.036 0.162 0 0.198c -0.246 0.024 -0.312 0.048 -0.312 0.546v 0.522c 0.114 -0.006 0.198 -0.012 0.258 -0.03c 0.066 -0.048 0.12 -0.102 0.192 -0.198l 0.438 -0.588c 0.174 -0.234 0.246 -0.348 0.252 -0.42c 0 -0.018 0.006 -0.03 0.024 -0.03c 0.12 0.006 0.252 0.012 0.372 0.012c 0.186 0 0.372 -0.006 0.492 -0.012c 0.036 0.036 0.036 0.162 0 0.198c -0.204 0.024 -0.354 0.048 -0.516 0.252l -0.792 0.996c -0.024 0.03 -0.042 0.054 -0.042 0.084c 0 0.024 0 0.036 0.024 0.06l 0.528 0.546c 0.18 0.192 0.39 0.24 0.63 0.264c 0.036 0.036 0.036 0.162 0 0.198c -0.138 -0.006 -0.306 -0.012 -0.522 -0.012c -0.228 0 -0.45 0.006 -0.588 0.012c -0.036 -0.036 -0.036 -0.162 0 -0.198c 0.336 -0.024 0.192 -0.234 0.138 -0.306c -0.138 -0.174 -0.324 -0.378 -0.48 -0.492c -0.132 -0.096 -0.294 -0.168 -0.408 -0.186v 2.094c 0 0.39 0.024 0.63 0.024 0.63c 0 0.042 -0.024 0.06 -0.078 0.06c -0.15 -0.06 -0.6 -0.144 -0.84 -0.162c -0.012 -0.048 0 -0.144 0.036 -0.18c 0.018 0 0.036 0 0.054 0c 0.264 -0.018 0.33 -0.018 0.33 -0.492Z "/></symbol><symbol id="g7173894EF0707B7DA6A99A0F4E93410D" overflow="visible"><path d="M 0 0m 1.104 2.148c -0.036 -0.042 -0.072 -0.054 -0.072 0c -0.006 0.162 -0.018 0.396 -0.048 0.456c -0.012 0.03 -0.024 0.048 -0.072 0.048c -0.168 -0.066 -0.324 -0.12 -0.738 -0.174c -0.012 -0.036 0 -0.132 0.012 -0.168c 0.324 -0.03 0.39 -0.06 0.39 -0.408v -1.17c 0 -0.492 -0.06 -0.516 -0.42 -0.546c -0.036 -0.036 -0.036 -0.162 0 -0.198c 0.18 0.006 0.42 0.012 0.66 0.012c 0.24 0 0.42 -0.006 0.6 -0.012c 0.036 0.036 0.036 0.162 0 0.198c -0.306 0.03 -0.366 0.054 -0.366 0.546v 0.984c 0 0.126 0.054 0.198 0.102 0.252c 0.228 0.222 0.498 0.354 0.732 0.354c 0.12 0 0.246 -0.078 0.318 -0.216c 0.06 -0.12 0.072 -0.282 0.072 -0.462v -0.912c 0 -0.492 -0.06 -0.516 -0.372 -0.546c -0.03 -0.036 -0.03 -0.162 0 -0.198c 0.18 0.006 0.372 0.012 0.612 0.012c 0.24 0 0.456 -0.006 0.636 -0.012c 0.03 0.036 0.03 0.162 0 0.198c -0.336 0.03 -0.402 0.054 -0.402 0.546v 0.894c 0 0.33 -0.024 0.618 -0.162 0.804c -0.102 0.132 -0.288 0.204 -0.498 0.204c -0.294 0 -0.63 -0.078 -0.984 -0.486Z "/></symbol><symbol id="g1497732F51EBA8C37AA68C5120E49D8F" overflow="visible"><path d="M 0 0m 1.302 -0.06c 0.234 0 0.516 0.12 0.81 0.36c 0.03 0.024 0.084 0.036 0.09 -0.006c 0.018 -0.15 0.066 -0.354 0.066 -0.354c 0.048 -0.018 0.078 -0.012 0.114 0c 0.132 0.108 0.342 0.198 0.708 0.24c 0.036 0.036 0.036 0.126 0 0.162c -0.384 0.03 -0.438 0.144 -0.438 0.438v 1.152c 0 0.18 0.024 0.618 0.024 0.618c 0 0.018 -0.018 0.036 -0.048 0.036c -0.03 -0.006 -0.12 -0.012 -0.21 -0.012c -0.192 0 -0.408 0.006 -0.612 0.012c -0.036 -0.036 -0.036 -0.162 0 -0.198c 0.294 -0.018 0.372 -0.09 0.372 -0.486v -1.158c 0 -0.114 -0.012 -0.162 -0.096 -0.234c -0.222 -0.192 -0.45 -0.288 -0.6 -0.288c -0.18 0 -0.48 0.084 -0.48 0.618v 1.092c 0 0.18 0.024 0.618 0.024 0.618c 0 0.018 -0.018 0.036 -0.048 0.036c -0.03 -0.006 -0.12 -0.012 -0.21 -0.012c -0.192 0 -0.408 0.006 -0.612 0.012c -0.036 -0.036 -0.036 -0.162 0 -0.198c 0.288 -0.024 0.372 -0.09 0.372 -0.48v -1.152c 0 -0.414 0.18 -0.816 0.774 -0.816Z "/></symbol><symbol id="g530BF65FDF5C3DAB80702D3471F0F73D" overflow="visible"><path d="M 0 0m 0.258 2.574c -0.084 0 -0.108 -0.072 -0.108 -0.12v -0.078c 0 -0.03 0.006 -0.036 0.03 -0.036h 0.354v -1.806c 0 -0.426 0.186 -0.594 0.462 -0.594c 0.276 0 0.576 0.132 0.81 0.396c -0.012 0.06 -0.048 0.096 -0.108 0.102c -0.156 -0.12 -0.336 -0.168 -0.492 -0.168c -0.162 0 -0.198 0.18 -0.198 0.552v 1.518h 0.624c 0.06 0 0.144 0.024 0.144 0.078v 0.12c 0 0.024 -0.018 0.036 -0.048 0.036h -0.72v 0.234c 0 0.39 0.024 0.63 0.024 0.63c 0 0.036 -0.018 0.054 -0.048 0.054c -0.024 0 -0.078 -0.024 -0.132 -0.054c -0.066 -0.036 -0.126 -0.066 -0.204 -0.084c -0.072 -0.024 -0.132 -0.042 -0.132 -0.084c 0 -0.072 0.018 -0.03 0.018 -0.696Z "/></symbol><symbol id="gC26A184DEEE6C42AE3F4A80CAC8305DE" overflow="visible"><path d="M 0 0m 0.75 -1.392v 5.58h -0.264v -5.58Z "/></symbol><symbol id="g873C0351E75367928697FCEF55E32D1E" overflow="visible"><path d="M 0 0m 0.288 0.828c 0.024 -0.294 0.042 -0.576 0.042 -0.828c 0.06 0.012 0.12 0.018 0.15 0.018c 0.042 0 0.078 0 0.12 -0.012c 0.162 -0.042 0.324 -0.066 0.546 -0.066c 0.336 0 0.954 0.162 0.954 0.756c 0 0.408 -0.294 0.648 -0.702 0.798c -0.36 0.138 -0.6 0.228 -0.6 0.558c 0 0.246 0.216 0.384 0.42 0.384c 0.132 0 0.48 -0.048 0.558 -0.558c 0.036 -0.036 0.156 -0.03 0.192 0.006c 0.018 0.216 0.03 0.438 0.036 0.636c -0.186 0.03 -0.474 0.114 -0.786 0.114c -0.444 0 -0.846 -0.288 -0.846 -0.672c 0 -0.438 0.198 -0.624 0.66 -0.816c 0.498 -0.204 0.612 -0.33 0.612 -0.588c 0 -0.294 -0.288 -0.42 -0.51 -0.42c -0.234 0 -0.366 0.078 -0.426 0.144c -0.132 0.138 -0.198 0.402 -0.234 0.552c -0.036 0.036 -0.15 0.03 -0.186 -0.006Z "/></symbol><symbol id="gC54E17EE6C6A6268C12D627857CDDB66" overflow="visible"><path d="M 0 0m 1.002 1.716c 0 0.126 0.054 0.198 0.102 0.252c 0.228 0.222 0.534 0.354 0.768 0.354c 0.12 0 0.246 -0.078 0.318 -0.216c 0.06 -0.12 0.072 -0.282 0.072 -0.462v -0.912c 0 -0.492 -0.06 -0.516 -0.372 -0.546c -0.03 -0.036 -0.03 -0.162 0 -0.198c 0.168 0.006 0.372 0.012 0.612 0.012c 0.24 0 0.438 -0.006 0.636 -0.012c 0.03 0.036 0.03 0.162 0 0.198c -0.336 0.03 -0.402 0.054 -0.402 0.546v 0.894c 0 0.33 -0.024 0.624 -0.162 0.804c -0.102 0.132 -0.288 0.204 -0.498 0.204c -0.294 0 -0.654 -0.078 -1.02 -0.486c 0 -0.006 -0.006 -0.006 -0.012 -0.012c -0.018 -0.024 -0.048 -0.06 -0.048 0.012l 0.006 1.35c 0 0.39 0.024 0.63 0.024 0.63c 0 0.042 -0.024 0.06 -0.078 0.06c -0.15 -0.06 -0.6 -0.144 -0.84 -0.162c -0.012 -0.048 0 -0.144 0.036 -0.18c 0.018 0 0.036 0 0.054 0c 0.264 -0.018 0.33 -0.018 0.33 -0.492v -2.622c 0 -0.498 -0.072 -0.522 -0.42 -0.546c -0.036 -0.036 -0.036 -0.162 0 -0.198c 0.198 0.006 0.42 0.012 0.66 0.012c 0.228 0 0.426 -0.006 0.594 -0.012c 0.036 0.036 0.036 0.162 0 0.198c -0.306 0.024 -0.36 0.048 -0.36 0.546Z "/></symbol><symbol id="g12B4D0C477C2291B11DD8C5D5A289401" overflow="visible"><path d="M 0 0m 2.316 0.558c -0.222 -0.228 -0.396 -0.324 -0.744 -0.324c -0.216 0 -0.468 0.126 -0.654 0.432c -0.12 0.198 -0.192 0.474 -0.192 0.822l 1.596 -0.012c 0.072 0 0.114 0.036 0.114 0.102c 0 0.504 -0.18 1.044 -1.014 1.044c -0.522 0 -1.2 -0.498 -1.2 -1.41c 0 -0.336 0.084 -0.66 0.282 -0.888c 0.204 -0.24 0.486 -0.384 0.918 -0.384c 0.456 0 0.78 0.21 1.02 0.522c -0.018 0.06 -0.054 0.09 -0.126 0.096Z m -1.572 1.134c 0.114 0.678 0.534 0.732 0.678 0.732c 0.228 0 0.498 -0.126 0.498 -0.63c 0 -0.054 -0.024 -0.084 -0.09 -0.084Z "/></symbol><symbol id="g576FC37FF3489F5E77AC15B686B63C62" overflow="visible"><path d="M 0 0m 1.728 0.732v 2.082c 0 0.36 0.006 0.726 0.018 0.804c 0 0.03 -0.012 0.03 -0.036 0.03c -0.33 -0.204 -0.648 -0.354 -1.176 -0.6c 0.012 -0.066 0.036 -0.126 0.09 -0.162c 0.276 0.114 0.408 0.15 0.522 0.15c 0.102 0 0.12 -0.144 0.12 -0.348v -1.956c 0 -0.498 -0.162 -0.528 -0.582 -0.546c -0.036 -0.036 -0.036 -0.162 0 -0.198c 0.294 0.006 0.51 0.012 0.834 0.012c 0.288 0 0.432 -0.006 0.732 -0.012c 0.036 0.036 0.036 0.162 0 0.198c -0.42 0.018 -0.522 0.048 -0.522 0.546Z "/></symbol><symbol id="gE0122233B34233F412C08A765FA64061" overflow="visible"><path d="M 0 0m 1.758 3.876h -0.246l -1.422 -4.23h 0.246Z "/></symbol><symbol id="gC9487B108F28D416C138445F004E99A" overflow="visible"><path d="M 0 0m 1.05 0.732v 1.608h 0.558c 0.054 0 0.138 0.024 0.138 0.078v 0.12c 0 0.024 -0.018 0.036 -0.048 0.036h -0.648v 0.342c 0 0.924 0.276 1.068 0.474 1.068c 0.18 0 0.276 -0.072 0.36 -0.282c 0.048 -0.108 0.114 -0.192 0.24 -0.192c 0.102 0 0.246 0.126 0.246 0.246c 0 0.102 -0.066 0.21 -0.192 0.306c -0.156 0.108 -0.312 0.126 -0.54 0.126c -0.504 0 -1.062 -0.438 -1.062 -1.374v -0.24h -0.306c -0.108 0 -0.138 -0.072 -0.138 -0.12v -0.078c 0 -0.03 0.006 -0.036 0.03 -0.036h 0.414v -1.608c 0 -0.498 -0.096 -0.522 -0.42 -0.546c -0.036 -0.036 -0.036 -0.162 0 -0.198c 0.21 0.006 0.42 0.012 0.66 0.012c 0.24 0 0.528 -0.006 0.738 -0.012c 0.036 0.036 0.036 0.162 0 0.198c -0.468 0.024 -0.504 0.048 -0.504 0.546Z "/></symbol></defs></svg>